PathFileType	4	(X/Y/Z)	D:\Share\Shared_Data\Ergonomics\Sit To Stand Pertubation\S2\Unperturbed.trc
DataRate	CameraRate	NumFrames	NumMarkers	Units	OrigDataRate	OrigDataStartFrame	OrigNumFrames	
100	100	16	18	m	100	4611	241
Frame#	Time	R_Toe			R_ASIS			R_Pelvis			V_Sacral			L_Pelvis			L_ASIS			Clavical			R_Acromium			L_Acromium			Sternum			Torso			R_Thigh_Med			R_Thigh_Lat			R_Thigh			R_Shank_Med			R_Shank_Lat			R_Shank			R_Heel			
		X1	Y1	Z1	X2	Y2	Z2	X3	Y3	Z3	X4	Y4	Z4	X5	Y5	Z5	X6	Y6	Z6	X7	Y7	Z7	X8	Y8	Z8	X9	Y9	Z9	X10	Y10	Z10	X11	Y11	Z11	X12	Y12	Z12	X13	Y13	Z13	X14	Y14	Z14	X15	Y15	Z15	X16	Y16	Z16	X17	Y17	Z17	X18	Y18	Z18	

4611	46.1	0.44213876	0.064567978	0.15079706	0.35955212	1.0117841	0.14935406	0.2874902	1.0252189	0.19205347	0.14428658	1.0412771	0.033412056	0.24570895	1.0388281	-0.14697351	0.34111429	1.0287179	-0.11983463	0.45887399	1.4231575	0.0095701046	0.38111383	1.4627029	0.21984413	0.34972858	1.4728036	-0.16895107	0.47683408	1.259844	0.004760479	0.45488321	1.3848818	-0.10545497	0.39776346	0.49323291	0.10786994	0.38266122	0.51564606	0.20142726	0.42624802	0.69501001	0.17518388	0.30893317	0.10725962	0.11009454	0.2863912	0.10146213	0.20118034	0.34395407	0.36771448	0.2263705	0.20510405	0.06184428	0.15174721
4612	46.11	0.44216962	0.064536926	0.15080516	0.36289557	1.0135472	0.14966953	0.2905744	1.0262444	0.19228056	0.14742145	1.0418889	0.033651413	0.24860838	1.0396868	-0.14672041	0.34406558	1.0304124	-0.11966566	0.45790192	1.4263647	0.0099377718	0.37969269	1.4649669	0.22036279	0.34786142	1.4749907	-0.16841867	0.47745944	1.2631776	0.0048785381	0.45412384	1.3881162	-0.10520494	0.39702411	0.49341003	0.10766821	0.38193933	0.51589728	0.20113533	0.42731302	0.69472266	0.17535229	0.3090098	0.10728996	0.11007199	0.28639597	0.10152748	0.20113063	0.34328787	0.36797256	0.22616666	0.20514932	0.061908688	0.15173332
4613	46.12	0.44219855	0.064506523	0.15081396	0.36617319	1.0152118	0.14996835	0.29361136	1.0271808	0.19250812	0.15049541	1.0424059	0.033876263	0.2514478	1.0404397	-0.14647809	0.34692157	1.0319745	-0.11950894	0.45690442	1.4294022	0.010312548	0.37824005	1.4670625	0.22087808	0.34602176	1.4770516	-0.16789389	0.4780184	1.2663564	0.0050024061	0.45334073	1.3911887	-0.10494278	0.39629382	0.49357373	0.1074416	0.38123203	0.51612488	0.20080762	0.4283627	0.69441266	0.17552991	0.30906442	0.10731063	0.11004844	0.28639957	0.10158717	0.20108319	0.34264285	0.36821796	0.22594289	0.20518622	0.061960136	0.15171249
4614	46.13	0.44222549	0.064476845	0.15082263	0.36938193	1.0167803	0.15025121	0.29659854	1.0280304	0.1927368	0.15350346	1.0428311	0.034087025	0.25422296	1.0410966	-0.14624632	0.34968744	1.033407	-0.11936363	0.45588458	1.4322742	0.010693324	0.37675302	1.4689906	0.22138634	0.34420938	1.478985	-0.16738159	0.47851746	1.2693811	0.0051317749	0.4525365	1.3941008	-0.10466978	0.39556296	0.49372214	0.10717953	0.38054028	0.5163277	0.2004415	0.42940207	0.69407837	0.17569861	0.30910135	0.10732208	0.11002206	0.28640173	0.10164083	0.20103665	0.34201938	0.36845181	0.22569434	0.20521577	0.062000824	0.15168877
4615	46.14	0.44225018	0.064448181	0.15083058	0.37251944	1.018255	0.15051942	0.29953217	1.0287955	0.19296497	0.15644342	1.0431683	0.034282776	0.2569335	1.0416703	-0.14602296	0.35238202	1.0347206	-0.11922852	0.45484427	1.4349858	0.011079249	0.37522861	1.4707522	0.22188416	0.34242148	1.480787	-0.16688469	0.47896326	1.2722535	0.0052665691	0.45171323	1.3968549	-0.10438722	0.39482492	0.49385388	0.10687577	0.37986575	0.51650562	0.20003821	0.43043909	0.69372229	0.17583641	0.30912497	0.10732549	0.10999229	0.28640222	0.10168784	0.20099026	0.34141779	0.3686749	0.22541817	0.20523912	0.062032619	0.1516662
4616	46.15	0.44227246	0.064420853	0.1508371	0.37558362	1.0196384	0.15077507	0.30240768	1.0294792	0.19319057	0.1593148	1.0434214	0.03446307	0.25958414	1.0421737	-0.14580292	0.35503644	1.0359332	-0.1191033	0.45378366	1.4375428	0.01146955	0.37366513	1.4723491	0.22236836	0.34065451	1.4824547	-0.16640477	0.47936032	1.2749771	0.0054076629	0.45087265	1.3994546	-0.10409602	0.39407556	0.49396832	0.1065282	0.37920984	0.51665985	0.19960037	0.43148068	0.6933493	0.17592264	0.3091394	0.10732246	0.10995924	0.28640097	0.10172785	0.20094357	0.34083792	0.36888809	0.22511392	0.20525725	0.062056988	0.15164796
4617	46.16	0.44229218	0.064395012	0.15084105	0.37857275	1.0209324	0.15102013	0.30522043	1.0300851	0.19341264	0.1621172	1.0435952	0.034628948	0.26218347	1.0426174	-0.14558011	0.35768747	1.0370674	-0.11898941	0.45270181	1.4399498	0.011862901	0.37206305	1.4737856	0.22283678	0.33890533	1.4839857	-0.16594215	0.4797106	1.2775568	0.0055570736	0.45001654	1.4019033	-0.10379687	0.39331259	0.49406473	0.1061372	0.37857382	0.51679224	0.19913133	0.43252887	0.69296375	0.17594223	0.30914761	0.10731452	0.10992314	0.28639789	0.10176106	0.2008959	0.34027856	0.36909232	0.22478355	0.20527133	0.062075104	0.15163567
4618	46.17	0.44230966	0.064370544	0.15084143	0.38148563	1.0221389	0.15125583	0.30796573	1.0306173	0.19363147	0.16485054	1.0436946	0.034782146	0.26473972	1.0430079	-0.14535214	0.36036749	1.0381432	-0.11888934	0.45159802	1.4422119	0.01225749	0.37042569	1.4750703	0.22328903	0.33717154	1.4853802	-0.16549577	0.48001544	1.2799984	0.0057170353	0.44914713	1.4042058	-0.10349117	0.39253748	0.49414279	0.1057058	0.37795892	0.51690417	0.19863606	0.43358063	0.69256873	0.17588774	0.30915155	0.10730276	0.10988409	0.28639301	0.10178809	0.20084651	0.33973727	0.36928839	0.22443105	0.2052825	0.062088177	0.15162888
4619	46.18	0.44232516	0.064347069	0.15083778	0.38432083	1.0232582	0.15148273	0.31063913	1.03108	0.19384718	0.16751675	1.043725	0.034924412	0.26725659	1.0433472	-0.14512419	0.36308875	1.0391722	-0.11880492	0.45047324	1.4443337	0.012651545	0.36875931	1.4762181	0.22372668	0.33545227	1.4866416	-0.16506393	0.48027798	1.2823079	0.0058885489	0.44826779	1.406366	-0.10318149	0.39175732	0.49420322	0.1052422	0.37736569	0.51699683	0.19812137	0.43463083	0.69216675	0.1757583	0.30915237	0.10728787	0.10984212	0.28638672	0.10180988	0.20079486	0.33921024	0.36947617	0.22406252	0.20529201	0.062097496	0.15162578
4620	46.19	0.44233929	0.06432415	0.1508306	0.38707553	1.0242915	0.15170108	0.31323645	1.0314772	0.19405875	0.17011891	1.0436923	0.03505695	0.26973245	1.0436342	-0.14490755	0.36582785	1.0401536	-0.11873627	0.44933032	1.4463215	0.013043246	0.36707156	1.4772467	0.22415298	0.33374823	1.4877743	-0.16464557	0.48050299	1.2844908	0.0060706072	0.44738223	1.4083887	-0.10287126	0.39098398	0.49424734	0.10476015	0.3767948	0.51707111	0.19759526	0.43567514	0.69176074	0.17555772	0.30915088	0.1072705	0.10979755	0.28637946	0.10182756	0.20074088	0.33869373	0.36965457	0.22368556	0.20530084	0.06210437	0.15162399
4621	46.2	0.44235266	0.064301414	0.15082135	0.38974579	1.02524	0.15191125	0.31575354	1.0318129	0.19426334	0.17265944	1.043603	0.035178669	0.27216339	1.0438673	-0.14471349	0.36852902	1.0410756	-0.11868204	0.44817383	1.4481803	0.013430309	0.36536969	1.4781732	0.22456969	0.33206125	1.4887833	-0.1642408	0.48069574	1.2865519	0.0062605977	0.44649423	1.4102777	-0.10256396	0.39023059	0.49427713	0.10427606	0.37624738	0.5171286	0.19706523	0.436711	0.691354	0.17529305	0.3091485	0.10725155	0.1097513	0.28637167	0.10184263	0.20068492	0.33818549	0.36982248	0.22330838	0.20530962	0.062109966	0.15162149
4622	46.21	0.44236566	0.064278664	0.15081178	0.39232809	1.0261061	0.15211383	0.31818823	1.0320917	0.19445694	0.17513901	1.0434646	0.035284946	0.27454587	1.0440459	-0.14454901	0.37113275	1.0419261	-0.1186398	0.44700909	1.4499149	0.013809885	0.36365848	1.4790089	0.22497408	0.33039398	1.489674	-0.16385164	0.4808609	1.2884951	0.0064554129	0.44560614	1.4120378	-0.10226272	0.38951074	0.49429501	0.10380604	0.37572479	0.5171709	0.19653601	0.43773825	0.69095007	0.17497357	0.30914694	0.10723205	0.10970467	0.28636398	0.10185674	0.20062752	0.3376861	0.36997995	0.22293843	0.20531863	0.062115288	0.15161716
4623	46.22	0.44237863	0.064255844	0.1508033	0.39482098	1.0268939	0.15230867	0.32054163	1.0323179	0.19463478	0.17755659	1.0432822	0.03536908	0.27687704	1.04417	-0.14441681	0.37360483	1.0427004	-0.11860658	0.44584094	1.4515292	0.014178816	0.3619415	1.4797604	0.22536028	0.32874979	1.4904507	-0.16348204	0.48100275	1.290324	0.0066524296	0.4447193	1.4136732	-0.10197027	0.38883676	0.49430423	0.10336382	0.37522855	0.51720099	0.19600964	0.43875827	0.69055286	0.17461067	0.30914777	0.10721294	0.10965864	0.28635706	0.1018716	0.20056911	0.3371987	0.37012811	0.22258128	0.20532791	0.0621213	0.15161079
4624	46.23	0.44239182	0.064233192	0.15079645	0.39722632	1.0276089	0.15249503	0.32281897	1.0324972	0.19479233	0.17991071	1.0430592	0.03542569	0.27915491	1.0442407	-0.14431682	0.37594223	1.0433997	-0.11857985	0.4446727	1.4530258	0.014534071	0.36022183	1.480432	0.22572292	0.3271333	1.4911187	-0.16313641	0.48112473	1.292042	0.0068499713	0.44383478	1.4151874	-0.10168886	0.38821616	0.49430826	0.10295862	0.37476053	0.51722241	0.1954875	0.43977173	0.69016516	0.17421779	0.30915176	0.10719461	0.10961335	0.2863515	0.1018885	0.20050996	0.33672781	0.37026846	0.22224001	0.20533746	0.062128914	0.15160291
4625	46.24	0.44240527	0.064211159	0.15079095	0.39954962	1.028256	0.15267159	0.32502823	1.0326337	0.19492639	0.18220064	1.0427961	0.035452621	0.28137753	1.0442601	-0.14424738	0.3781626	1.0440289	-0.11855857	0.44350641	1.4544081	0.014873186	0.35850308	1.4810269	0.22605844	0.32554959	1.4916844	-0.16281775	0.48122806	1.2936527	0.0070472665	0.44295398	1.4165835	-0.10142026	0.38764917	0.49430978	0.10259438	0.37432083	0.51723883	0.19497096	0.44077704	0.68978851	0.17381038	0.30915823	0.10717672	0.10956829	0.28634805	0.1019081	0.20045045	0.33627765	0.37040237	0.22191537	0.20534724	0.06213879	0.1515941
4626	46.25	0.44241907	0.064190407	0.15078645	0.40180096	1.0288412	0.15283661	0.3271778	1.0327319	0.19503625	0.18442511	1.0424926	0.035449924	0.2835434	1.04423	-0.14420551	0.38029025	1.0445931	-0.11854362	0.44234436	1.4556797	0.015194558	0.35678937	1.4815471	0.2263644	0.32400403	1.4921555	-0.16252725	0.48131116	1.2951589	0.0072439594	0.44207889	1.4178649	-0.10116598	0.38712964	0.49431039	0.10227031	0.37390536	0.51725232	0.19446031	0.44177078	0.68942352	0.17340518	0.30916559	0.10715866	0.10952301	0.28634668	0.1019304	0.20039128	0.33584991	0.37053131	0.22160764	0.20535704	0.062151073	0.1515845
